<?xml version="1.0" standalone="no"?>
<!DOCTYPE svg PUBLIC "-//W3C//DTD SVG 20010904//EN"
 "http://www.w3.org/TR/2001/REC-SVG-20010904/DTD/svg10.dtd">
<svg version="1.0" xmlns="http://www.w3.org/2000/svg"
 width="692.000000pt" height="1268.000000pt" viewBox="0 0 692.000000 1268.000000"
 preserveAspectRatio="xMidYMid meet">
<metadata>
Created by potrace 1.15, written by Peter Selinger 2001-2017
</metadata>
<g transform="translate(0.000000,1268.000000) scale(0.100000,-0.100000)"
fill="#303030" stroke="none">
<path d="M0 6340 l0 -6340 3460 0 3460 0 0 6340 0 6340 -3460 0 -3460 0 0
-6340z m3268 5479 c787 -85 1426 -635 1623 -1396 280 -1089 -473 -2188 -1590
-2318 -727 -85 -1425 253 -1813 878 -318 512 -364 1168 -121 1724 220 503 669
897 1193 1048 227 65 485 89 708 64z m-1685 -3364 c328 -299 677 -485 1052
-560 640 -128 1330 57 2053 552 69 47 130 82 138 79 31 -12 10 -38 -76 -98
-50 -34 -90 -66 -90 -71 0 -5 7 -4 15 3 17 14 45 7 45 -13 0 -7 -28 -36 -63
-64 -653 -523 -969 -2392 -691 -4093 86 -528 234 -1028 427 -1441 50 -107 145
-282 188 -347 37 -55 36 -68 -2 -76 -41 -8 -2908 -8 -2976 0 -59 7 -64 16 -30
48 58 54 238 383 336 616 518 1228 606 3112 207 4422 -130 426 -334 784 -543
951 -40 33 -63 57 -61 68 2 10 -8 29 -21 43 -23 24 -23 56 -1 56 6 0 48 -34
93 -75z m1501 -6735 c43 -11 105 -32 137 -46 73 -33 103 -27 132 29 18 35 47
51 47 25 0 -7 7 -105 15 -218 8 -113 15 -208 15 -212 0 -5 -6 -8 -14 -8 -8 0
-25 31 -40 73 -50 136 -146 246 -254 288 -81 33 -243 33 -322 1 -150 -60 -241
-187 -287 -397 -24 -108 -21 -339 5 -436 70 -260 253 -394 510 -376 140 9 241
66 347 196 36 43 63 67 71 64 11 -4 10 -13 -8 -42 -81 -135 -195 -234 -321
-279 -64 -23 -87 -26 -202 -26 -204 -1 -317 43 -446 173 -151 151 -221 372
-190 598 23 162 93 313 194 417 159 162 397 231 611 176z m-934 -25 c0 -11
-12 -15 -46 -15 -25 0 -60 -7 -78 -15 -63 -30 -61 -7 -64 -600 -2 -378 0 -551
8 -578 9 -31 19 -42 53 -58 23 -10 61 -19 85 -19 31 0 42 -4 42 -15 0 -13 -38
-15 -285 -15 -247 0 -285 2 -285 15 0 11 12 15 46 15 63 0 113 26 130 66 21
49 20 1089 0 1138 -16 38 -73 66 -136 66 -29 0 -40 4 -40 15 0 13 38 15 285
15 247 0 285 -2 285 -15z m2170 -7 c111 -29 195 -92 242 -180 20 -37 23 -58
23 -143 0 -85 -3 -106 -23 -143 -46 -86 -125 -146 -240 -182 l-53 -16 161
-225 c88 -123 184 -248 212 -278 55 -57 124 -95 196 -106 26 -4 42 -12 42 -21
0 -12 -31 -14 -177 -14 l-178 1 -221 307 -220 307 -73 3 -73 3 4 -258 c3 -283
5 -290 64 -318 18 -8 53 -15 78 -15 34 0 46 -4 46 -15 0 -13 -38 -15 -280 -15
-242 0 -280 2 -280 15 0 11 11 15 40 15 22 0 56 6 75 14 66 28 65 15 65 623 0
418 -3 554 -13 573 -16 33 -72 60 -124 60 -33 0 -43 4 -43 16 0 14 34 15 348
11 260 -3 361 -8 402 -19z"/>
<path d="M4075 11393 c-9 -54 -49 -118 -89 -142 -57 -36 -115 -28 -319 40
-331 110 -479 135 -735 126 -122 -5 -196 -13 -277 -31 -620 -138 -1087 -604
-1226 -1226 -21 -92 -23 -130 -23 -310 0 -172 4 -220 21 -300 138 -614 552
-1009 1187 -1132 132 -25 465 -36 603 -19 326 40 599 173 846 410 l47 45 0
125 0 125 -90 -96 c-284 -303 -545 -428 -893 -428 -530 0 -817 298 -922 960
-26 161 -31 524 -10 675 78 565 336 898 774 1001 106 24 315 15 426 -19 162
-50 270 -113 388 -226 121 -116 218 -279 272 -458 l28 -93 39 0 38 0 0 505 0
505 -39 0 c-37 0 -39 -2 -46 -37z"/>
<path d="M2505 10709 c-9 -17 -14 -33 -11 -37 3 -3 6 1 6 8 0 7 2 11 5 8 8 -7
-16 -58 -25 -53 -4 2 -14 -11 -23 -29 l-16 -34 117 -3 c188 -5 196 -5 214 -13
9 -4 21 -5 27 -2 5 4 12 2 16 -4 4 -6 10 -8 15 -5 5 3 11 1 15 -5 4 -6 11 -8
16 -5 5 4 9 1 9 -5 0 -6 5 -8 10 -5 6 3 10 1 10 -6 0 -7 3 -10 6 -6 4 3 14 -2
23 -11 10 -12 13 -12 6 -2 -5 8 10 -3 33 -25 41 -38 58 -61 27 -35 -13 11 -12
7 2 -18 10 -17 21 -29 24 -26 4 2 5 -5 2 -16 -5 -19 -14 -20 -249 -20 l-243 0
-16 -31 c-9 -17 -14 -33 -11 -37 3 -3 6 1 6 8 0 7 2 11 5 8 8 -7 -16 -58 -25
-53 -4 2 -14 -11 -23 -30 l-16 -34 296 -1 c163 0 298 -2 300 -3 1 -2 5 -19 8
-38 4 -28 3 -30 -5 -14 -9 17 -10 14 -5 -13 3 -23 1 -31 -7 -26 -8 5 -9 1 -4
-11 5 -14 0 -25 -16 -38 -13 -10 -16 -16 -8 -12 8 4 5 -2 -8 -12 -13 -10 -33
-30 -45 -44 -12 -14 -20 -20 -17 -14 3 6 -2 3 -11 -7 -9 -9 -19 -14 -23 -11
-3 4 -6 1 -6 -6 0 -7 -4 -9 -10 -6 -5 3 -10 1 -10 -5 0 -6 -4 -8 -10 -5 -5 3
-10 1 -10 -5 0 -6 -4 -8 -10 -5 -5 3 -10 1 -10 -5 0 -7 -7 -10 -15 -6 -8 3
-15 1 -15 -5 0 -6 -7 -9 -15 -6 -8 4 -17 2 -20 -3 -3 -5 -12 -7 -20 -3 -9 3
-21 0 -29 -6 -7 -6 -21 -9 -30 -5 -9 3 -23 1 -31 -6 -9 -7 -26 -9 -45 -5 -17
4 -48 4 -70 0 l-40 -7 0 -81 c0 -62 4 -85 18 -101 17 -21 17 -21 -5 -2 -20 17
-23 30 -25 105 l-2 86 -4 -85 -3 -85 48 -45 c27 -25 41 -40 33 -35 -9 6 5 -10
30 -35 25 -25 36 -38 25 -30 -12 8 -1 -5 25 -30 25 -25 38 -40 30 -35 -9 6 5
-10 30 -35 25 -25 36 -38 25 -30 -12 8 -1 -5 25 -30 25 -25 38 -40 30 -35 -9
6 5 -10 30 -35 25 -25 36 -38 25 -30 -12 8 -1 -5 25 -30 25 -25 38 -40 30 -35
-9 6 5 -10 30 -35 25 -25 39 -40 30 -35 -9 6 2 -8 25 -30 22 -22 34 -35 25
-30 -9 6 5 -10 30 -35 25 -25 39 -40 30 -35 -9 6 -4 -2 11 -17 15 -14 25 -29
22 -32 -3 -3 113 -5 258 -5 l264 0 -56 52 c-30 29 -46 45 -34 37 12 -8 -4 10
-35 40 -31 30 -47 48 -35 40 12 -8 -4 10 -35 40 -31 30 -47 48 -35 40 12 -8
-4 10 -35 40 -31 30 -47 48 -35 40 12 -8 -4 10 -35 40 -30 30 -46 48 -35 40
12 -8 -4 10 -35 40 -30 30 -46 48 -35 40 12 -8 -4 10 -35 40 -30 30 -46 48
-35 40 12 -8 -4 10 -35 40 -30 30 -46 48 -35 40 12 -8 -6 11 -39 42 -33 31
-57 60 -53 64 4 4 7 1 7 -6 0 -10 4 -10 18 2 9 9 22 13 29 11 6 -2 14 0 17 6
4 6 13 8 21 4 8 -3 15 0 15 6 0 6 7 8 15 5 8 -4 15 -1 15 5 0 6 7 8 15 5 8 -4
15 -1 15 6 0 6 5 8 10 5 6 -3 10 -1 10 5 0 6 5 8 10 5 6 -3 10 -1 10 5 0 6 5
8 10 5 6 -3 10 -1 10 5 0 6 5 8 10 5 6 -3 10 -1 10 6 0 7 3 9 7 6 3 -4 12 1
20 11 10 11 12 12 8 2 -4 -8 3 -4 15 10 12 14 18 19 14 11 -3 -7 28 21 70 64
71 72 90 95 66 80 -6 -4 -5 4 1 19 7 14 15 23 19 21 11 -7 20 22 13 42 -4 11
-3 14 6 9 9 -6 11 1 7 31 -5 28 -4 33 3 18 8 -17 10 -14 10 18 l1 37 75 0 c46
0 75 4 75 11 0 5 4 7 10 4 6 -4 7 1 3 11 -4 10 -2 15 4 11 10 -6 58 82 48 91
-3 3 -5 -1 -5 -8 0 -7 -2 -11 -5 -8 -9 8 6 38 16 32 5 -3 6 2 3 10 -5 13 -27
16 -125 16 -77 0 -119 4 -119 11 0 5 -4 7 -10 4 -6 -4 -7 1 -3 11 4 11 2 15
-4 11 -5 -4 -15 5 -22 19 -6 15 -7 23 -1 19 25 -16 5 11 -52 68 -33 34 -57 56
-53 48 5 -9 4 -12 -3 -7 -33 20 0 26 153 26 109 0 165 4 165 11 0 5 4 7 10 4
6 -4 7 1 3 11 -4 10 -2 15 4 11 10 -6 58 82 48 91 -3 3 -5 -1 -5 -8 0 -7 -2
-11 -5 -8 -9 8 6 38 16 32 5 -3 6 2 3 10 -5 14 -71 16 -580 16 l-573 0 -16
-31z"/>
<path d="M2229 7805 c-32 -17 -54 -66 -45 -100 4 -14 20 -48 38 -76 42 -69
110 -225 153 -353 273 -817 319 -2050 119 -3186 -78 -444 -159 -763 -307
-1212 -70 -213 -71 -218 -55 -250 31 -66 117 -76 156 -20 20 28 125 338 186
547 157 538 265 1148 312 1755 21 267 24 883 6 1120 -55 711 -182 1264 -380
1644 -72 139 -114 169 -183 131z"/>
<path d="M4000 1632 l-55 -18 -3 -272 -2 -272 64 0 c267 0 419 169 356 396
-15 54 -78 128 -134 156 -56 29 -155 33 -226 10z"/>
</g>
</svg>
